<?xml version="1.0" encoding="UTF-8"?>
<svg xmlns="http://www.w3.org/2000/svg" xmlns:xlink="http://www.w3.org/1999/xlink" width="73px" height="80px" viewBox="0 0 73 80" version="1.1">
<g id="surface1">
<path style=" stroke:none;fill-rule:nonzero;fill:rgb(96.470588%,53.333336%,12.156863%);fill-opacity:1;" d="M 22.050781 37.960938 C 22.976562 38.722656 23.609375 39.5625 24.199219 40.597656 C 24.394531 40.433594 24.585938 40.269531 24.789062 40.097656 C 24.917969 39.988281 25.046875 39.882812 25.179688 39.769531 C 25.457031 39.527344 25.722656 39.28125 25.980469 39.023438 C 28.910156 36.191406 32.84375 35.292969 36.8125 35.328125 C 40.59375 35.441406 44 36.582031 46.800781 39.203125 C 47.191406 39.621094 47.5625 40.042969 47.925781 40.484375 C 48.1875 40.820312 48.1875 40.820312 48.601562 40.996094 C 48.675781 40.777344 48.675781 40.777344 48.757812 40.550781 C 49.722656 38.359375 51.980469 37.113281 54.113281 36.257812 C 57.96875 34.792969 62.726562 34.941406 66.523438 36.519531 C 68.871094 37.675781 70.683594 39.445312 71.550781 41.929688 C 71.921875 43.15625 72 44.042969 72 45.375 C 69.359375 45.375 66.71875 45.375 64 45.375 C 63.671875 44.714844 63.339844 44.058594 63 43.382812 C 62.082031 42.53125 61.222656 42.519531 60 42.5 C 59.796875 42.496094 59.796875 42.496094 59.589844 42.492188 C 58.578125 42.511719 57.882812 42.730469 57 43.183594 C 56.628906 43.652344 56.601562 43.972656 56.511719 44.566406 C 56.636719 45.421875 56.90625 45.644531 57.601562 46.167969 C 59.371094 47.042969 61.3125 47.394531 63.226562 47.8125 C 66.28125 48.515625 69.363281 49.644531 71.199219 52.339844 C 72.128906 53.859375 72.476562 55.425781 72.460938 57.1875 C 72.460938 57.335938 72.460938 57.484375 72.460938 57.636719 C 72.410156 59.824219 71.683594 61.679688 70.207031 63.324219 C 66.984375 66.378906 62.824219 66.566406 58.625 66.523438 C 55.191406 66.429688 51.90625 65.5 49.367188 63.085938 C 48.847656 62.519531 48.417969 61.9375 48 61.292969 C 47.921875 61.390625 47.84375 61.488281 47.765625 61.585938 C 46.144531 63.515625 44.359375 64.769531 42 65.671875 C 41.789062 65.753906 41.574219 65.835938 41.355469 65.921875 C 37.367188 67.222656 32.707031 66.773438 28.9375 65.039062 C 27.359375 64.203125 25.828125 63.167969 24.800781 61.691406 C 24.664062 61.851562 24.527344 62.007812 24.390625 62.171875 C 22.074219 64.820312 19.511719 66.039062 16 66.46875 C 15.113281 66.523438 14.226562 66.535156 13.335938 66.53125 C 13.101562 66.527344 12.863281 66.527344 12.621094 66.527344 C 8.917969 66.476562 5.457031 65.710938 2.761719 63.050781 C 0.605469 60.761719 0.242188 58.457031 0 55.324219 C 2.707031 55.324219 5.410156 55.324219 8.199219 55.324219 C 8.332031 55.914062 8.464844 56.503906 8.601562 57.113281 C 9.160156 58.144531 9.707031 58.746094 10.816406 59.171875 C 12.359375 59.519531 14.296875 59.625 15.773438 58.992188 C 16.558594 58.382812 16.765625 58.070312 17 57.113281 C 16.828125 56.203125 16.332031 55.851562 15.601562 55.324219 C 14.382812 54.796875 13.050781 54.535156 11.757812 54.246094 C 11.53125 54.195312 11.308594 54.144531 11.078125 54.09375 C 10.628906 53.996094 10.179688 53.898438 9.726562 53.804688 C 6.886719 53.1875 3.6875 52.066406 2 49.550781 C 0.703125 47.503906 0.507812 45.046875 1.039062 42.71875 C 1.828125 40.113281 3.5 38.179688 5.886719 36.863281 C 10.871094 34.460938 17.550781 34.613281 22.050781 37.960938 Z M 10.039062 43.246094 C 9.675781 43.757812 9.625 44.152344 9.601562 44.777344 C 9.777344 45.445312 9.984375 45.824219 10.570312 46.21875 C 12.105469 47.007812 13.703125 47.382812 15.375 47.761719 C 17.164062 48.167969 18.867188 48.605469 20.550781 49.363281 C 20.980469 49.578125 20.980469 49.578125 21.398438 49.550781 C 21.664062 48.171875 21.929688 46.792969 22.199219 45.375 C 20.550781 45.375 18.898438 45.375 17.199219 45.375 C 17.101562 44.78125 17.101562 44.78125 17 44.179688 C 16.765625 43.765625 16.765625 43.765625 16.449219 43.433594 C 16.304688 43.261719 16.304688 43.261719 16.152344 43.085938 C 15.277344 42.339844 14.324219 42.320312 13.210938 42.324219 C 13.074219 42.324219 12.9375 42.320312 12.792969 42.316406 C 11.683594 42.316406 10.929688 42.605469 10.039062 43.246094 Z M 31.964844 44.359375 C 30.164062 46.410156 29.898438 49.332031 30.019531 51.945312 C 30.214844 54.496094 30.820312 56.589844 32.800781 58.308594 C 34.25 59.265625 36.03125 59.476562 37.726562 59.191406 C 39.34375 58.753906 40.492188 57.804688 41.355469 56.390625 C 42.761719 53.671875 42.859375 49.960938 41.984375 47.0625 C 41.359375 45.378906 40.601562 44.109375 39 43.183594 C 36.53125 42.203125 33.894531 42.574219 31.964844 44.359375 Z M 51 51.742188 C 50.933594 52.921875 50.867188 54.105469 50.800781 55.324219 C 52.121094 55.324219 53.441406 55.324219 54.800781 55.324219 C 54.839844 55.621094 54.882812 55.921875 54.925781 56.230469 C 55.1875 57.507812 55.714844 58.207031 56.757812 58.96875 C 58.296875 59.820312 60.480469 59.796875 62.152344 59.355469 C 62.96875 58.988281 63.480469 58.542969 63.800781 57.710938 C 63.910156 56.964844 63.886719 56.644531 63.460938 56.015625 C 62.058594 54.515625 59.539062 54.238281 57.613281 53.832031 C 55.660156 53.417969 53.84375 52.902344 52 52.140625 C 51.503906 51.941406 51.503906 51.941406 51 51.742188 Z M 51 51.742188 "/>
<path style=" stroke:none;fill-rule:nonzero;fill:rgb(96.470588%,53.333336%,12.156863%);fill-opacity:1;" d="M 55.800781 6.566406 C 56.902344 7.140625 57.753906 7.804688 58.648438 8.65625 C 58.84375 8.839844 58.84375 8.839844 59.042969 9.027344 C 62.832031 12.636719 62.832031 12.636719 64 14.726562 C 63.75 15.472656 63.503906 15.570312 62.847656 15.984375 C 62.652344 16.105469 62.457031 16.230469 62.257812 16.355469 C 62.054688 16.484375 61.847656 16.609375 61.636719 16.742188 C 61.335938 16.933594 61.335938 16.933594 61.023438 17.128906 C 59.375 18.167969 59.375 18.167969 58.601562 18.308594 C 58.492188 18.160156 58.382812 18.011719 58.269531 17.855469 C 56.78125 15.84375 55.253906 14.058594 53.257812 12.519531 C 52.800781 12.140625 52.800781 12.140625 52.398438 11.542969 C 52.617188 11.230469 52.617188 11.230469 52.839844 10.910156 C 53.835938 9.46875 54.832031 8.027344 55.800781 6.566406 Z M 55.800781 6.566406 "/>
<path style=" stroke:none;fill-rule:nonzero;fill:rgb(96.470588%,53.333336%,12.156863%);fill-opacity:1;" d="M 6.800781 15.324219 C 7.832031 15.652344 8.640625 16.277344 9.511719 16.902344 C 9.664062 17.011719 9.8125 17.117188 9.96875 17.226562 C 10.652344 17.714844 11.328125 18.203125 12 18.707031 C 11.730469 19.417969 11.410156 20.085938 11.058594 20.757812 C 9.964844 22.859375 9.144531 25.019531 8.398438 27.265625 C 7.023438 27.140625 5.726562 26.886719 4.386719 26.554688 C 4.097656 26.484375 4.097656 26.484375 3.804688 26.414062 C 3.335938 26.300781 2.867188 26.183594 2.398438 26.070312 C 2.503906 24.777344 2.746094 23.683594 3.210938 22.476562 C 3.273438 22.3125 3.335938 22.148438 3.398438 21.980469 C 4.304688 19.648438 5.453125 17.4375 6.800781 15.324219 Z M 6.800781 15.324219 "/>
<path style=" stroke:none;fill-rule:nonzero;fill:rgb(97.647059%,63.921571%,35.294119%);fill-opacity:1;" d="M 28.601562 0.597656 C 29.636719 4.859375 29.636719 4.859375 29.601562 6.765625 C 29.484375 6.800781 29.367188 6.832031 29.25 6.867188 C 26.898438 7.566406 24.664062 8.335938 22.46875 9.433594 C 21.960938 9.675781 21.546875 9.851562 21 9.949219 C 20.179688 8.808594 19.378906 7.652344 18.601562 6.480469 C 18.519531 6.359375 18.4375 6.238281 18.351562 6.117188 C 18.152344 5.8125 17.972656 5.492188 17.800781 5.175781 C 18.082031 4.328125 18.683594 4.132812 19.4375 3.742188 C 19.585938 3.667969 19.734375 3.589844 19.890625 3.507812 C 22.351562 2.265625 25.777344 0.597656 28.601562 0.597656 Z M 28.601562 0.597656 "/>
<path style=" stroke:none;fill-rule:nonzero;fill:rgb(97.647059%,63.921571%,35.294119%);fill-opacity:1;" d="M 43.800781 0.996094 C 44.980469 1.105469 46.003906 1.34375 47.113281 1.753906 C 47.273438 1.8125 47.433594 1.871094 47.597656 1.929688 C 49.941406 2.828125 52.308594 3.984375 54.398438 5.375 C 53.53125 7.222656 52.183594 8.886719 51 10.546875 C 50.300781 10.285156 49.648438 9.972656 48.988281 9.628906 C 46.925781 8.558594 44.78125 7.753906 42.601562 6.964844 C 42.722656 5.597656 42.980469 4.304688 43.3125 2.972656 C 43.359375 2.78125 43.40625 2.589844 43.453125 2.394531 C 43.570312 1.925781 43.683594 1.460938 43.800781 0.996094 Z M 43.800781 0.996094 "/>
<path style=" stroke:none;fill-rule:nonzero;fill:rgb(97.647059%,63.921571%,35.294119%);fill-opacity:1;" d="M 33.488281 -0.0351562 C 33.648438 -0.0351562 33.808594 -0.0351562 33.976562 -0.0351562 C 34.316406 -0.0351562 34.65625 -0.0351562 34.996094 -0.0351562 C 35.507812 -0.0390625 36.015625 -0.0390625 36.527344 -0.0429688 C 38.394531 -0.0507812 40.164062 0.0351562 42 0.398438 C 41.777344 1.84375 41.511719 3.28125 41.210938 4.714844 C 41.179688 4.875 41.148438 5.035156 41.117188 5.199219 C 41.03125 5.59375 40.917969 5.980469 40.800781 6.367188 C 39.988281 6.636719 39.28125 6.472656 38.449219 6.367188 C 36.152344 6.101562 33.902344 6.210938 31.601562 6.367188 C 31.3125 5.269531 31.074219 4.175781 30.875 3.058594 C 30.847656 2.914062 30.820312 2.769531 30.792969 2.621094 C 30.648438 1.804688 30.570312 1.035156 30.601562 0.199219 C 31.566406 0.0078125 32.507812 -0.03125 33.488281 -0.0351562 Z M 33.488281 -0.0351562 "/>
<path style=" stroke:none;fill-rule:nonzero;fill:rgb(96.470588%,53.333336%,12.156863%);fill-opacity:1;" d="M 65.199219 16.714844 C 66.964844 19.824219 69.03125 23.609375 69 27.265625 C 68.113281 27.429688 67.226562 27.597656 66.335938 27.761719 C 66.085938 27.808594 65.832031 27.855469 65.570312 27.90625 C 65.210938 27.972656 65.210938 27.972656 64.839844 28.042969 C 64.503906 28.105469 64.503906 28.105469 64.164062 28.167969 C 63.601562 28.257812 63.601562 28.257812 63 28.257812 C 62.929688 28.039062 62.929688 28.039062 62.855469 27.8125 C 61.554688 23.765625 61.554688 23.765625 59.800781 19.902344 C 60.445312 19.480469 61.089844 19.0625 61.738281 18.644531 C 61.917969 18.527344 62.101562 18.40625 62.289062 18.285156 C 62.46875 18.171875 62.644531 18.054688 62.828125 17.9375 C 62.988281 17.832031 63.152344 17.726562 63.320312 17.617188 C 64.738281 16.714844 64.738281 16.714844 65.199219 16.714844 Z M 65.199219 16.714844 "/>
<path style=" stroke:none;fill-rule:nonzero;fill:rgb(96.470588%,53.333336%,12.156863%);fill-opacity:1;" d="M 16.398438 5.96875 C 16.742188 6.398438 16.742188 6.398438 17.113281 6.992188 C 17.25 7.207031 17.382812 7.417969 17.519531 7.640625 C 17.585938 7.75 17.65625 7.863281 17.726562 7.976562 C 17.9375 8.320312 18.148438 8.65625 18.363281 8.996094 C 19.398438 10.664062 19.398438 10.664062 19.398438 11.34375 C 19.078125 11.644531 19.078125 11.644531 18.625 11.964844 C 16.671875 13.417969 14.761719 15.082031 13.398438 17.113281 C 12.664062 17.003906 12.1875 16.828125 11.585938 16.394531 C 11.441406 16.289062 11.292969 16.1875 11.140625 16.078125 C 10.992188 15.96875 10.84375 15.859375 10.6875 15.746094 C 10.460938 15.585938 10.460938 15.585938 10.230469 15.417969 C 9.546875 14.929688 8.871094 14.433594 8.199219 13.929688 C 8.613281 11.34375 12.574219 8.441406 14.539062 6.890625 C 14.65625 6.796875 14.773438 6.703125 14.894531 6.605469 C 15.722656 5.96875 15.722656 5.96875 16.398438 5.96875 Z M 16.398438 5.96875 "/>
<path style=" stroke:none;fill-rule:nonzero;fill:rgb(96.470588%,53.333336%,12.156863%);fill-opacity:1;" d="M 13.199219 19.703125 C 14.199219 20.253906 15.152344 20.84375 16.085938 21.492188 C 16.277344 21.621094 16.277344 21.621094 16.472656 21.75 C 16.835938 22.003906 16.835938 22.003906 17.398438 22.488281 C 17.398438 23.214844 17.382812 23.417969 17.078125 24.023438 C 17.011719 24.164062 16.941406 24.300781 16.871094 24.445312 C 16.761719 24.664062 16.761719 24.664062 16.648438 24.886719 C 16.015625 26.1875 15.464844 27.484375 15 28.855469 C 14.359375 28.734375 13.714844 28.609375 13.074219 28.484375 C 12.894531 28.449219 12.714844 28.414062 12.527344 28.378906 C 11.59375 28.195312 10.695312 27.992188 9.800781 27.660156 C 10.253906 25.136719 11.308594 21.582031 13.199219 19.703125 Z M 13.199219 19.703125 "/>
<path style=" stroke:none;fill-rule:nonzero;fill:rgb(98.431373%,71.372551%,48.235294%);fill-opacity:1;" d="M 30 8.160156 C 30.136719 8.832031 30.269531 9.503906 30.398438 10.175781 C 30.4375 10.363281 30.476562 10.554688 30.515625 10.746094 C 30.699219 11.6875 30.851562 12.566406 30.800781 13.53125 C 30.5625 13.605469 30.328125 13.679688 30.082031 13.757812 C 27.765625 14.496094 27.765625 14.496094 25.589844 15.566406 C 25.089844 15.765625 24.898438 15.714844 24.398438 15.523438 C 24.109375 15.183594 24.109375 15.183594 23.847656 14.746094 C 23.75 14.589844 23.65625 14.433594 23.558594 14.269531 C 23.460938 14.105469 23.363281 13.9375 23.261719 13.769531 C 23.164062 13.605469 23.0625 13.441406 22.960938 13.273438 C 22.164062 11.949219 22.164062 11.949219 22 11.144531 C 23.773438 10.183594 25.542969 9.386719 27.460938 8.757812 C 27.644531 8.695312 27.828125 8.636719 28.015625 8.574219 C 29.3125 8.160156 29.3125 8.160156 30 8.160156 Z M 30 8.160156 "/>
<path style=" stroke:none;fill-rule:nonzero;fill:rgb(98.431373%,71.372551%,48.235294%);fill-opacity:1;" d="M 42.199219 8.359375 C 43.980469 8.757812 45.582031 9.375 47.226562 10.148438 C 47.40625 10.234375 47.589844 10.320312 47.777344 10.40625 C 47.949219 10.488281 48.125 10.574219 48.300781 10.660156 C 48.457031 10.734375 48.609375 10.808594 48.769531 10.882812 C 49.257812 11.179688 49.613281 11.523438 50 11.941406 C 49.546875 12.601562 49.09375 13.261719 48.636719 13.917969 C 48.507812 14.105469 48.378906 14.292969 48.25 14.488281 C 48.0625 14.757812 48.0625 14.757812 47.871094 15.03125 C 47.757812 15.195312 47.644531 15.363281 47.523438 15.53125 C 47.199219 15.921875 47.199219 15.921875 46.601562 16.121094 C 46.085938 15.894531 45.605469 15.660156 45.113281 15.398438 C 43.765625 14.703125 42.410156 14.09375 41 13.53125 C 41.160156 12.746094 41.324219 11.957031 41.488281 11.167969 C 41.535156 10.945312 41.578125 10.71875 41.625 10.488281 C 41.671875 10.273438 41.714844 10.0625 41.761719 9.839844 C 41.800781 9.640625 41.84375 9.445312 41.886719 9.238281 C 42 8.757812 42 8.757812 42.199219 8.359375 Z M 42.199219 8.359375 "/>
<path style=" stroke:none;fill-rule:nonzero;fill:rgb(98.431373%,71.372551%,48.235294%);fill-opacity:1;" d="M 35.539062 7.523438 C 35.738281 7.523438 35.941406 7.519531 36.152344 7.515625 C 37.605469 7.515625 38.976562 7.679688 40.398438 7.960938 C 40.238281 8.75 40.074219 9.535156 39.914062 10.324219 C 39.867188 10.546875 39.820312 10.773438 39.773438 11.003906 C 39.730469 11.21875 39.683594 11.433594 39.636719 11.652344 C 39.597656 11.851562 39.554688 12.046875 39.515625 12.253906 C 39.398438 12.734375 39.398438 12.734375 39.199219 13.132812 C 37.089844 13.132812 34.976562 13.132812 32.800781 13.132812 C 32.351562 11.34375 32.351562 11.34375 32.230469 10.558594 C 32.203125 10.394531 32.179688 10.230469 32.152344 10.058594 C 32.125 9.890625 32.101562 9.722656 32.074219 9.550781 C 32.046875 9.378906 32.019531 9.207031 31.992188 9.027344 C 31.929688 8.605469 31.863281 8.183594 31.800781 7.761719 C 33.046875 7.542969 34.273438 7.527344 35.539062 7.523438 Z M 35.539062 7.523438 "/>
<path style=" stroke:none;fill-rule:nonzero;fill:rgb(96.470588%,53.333336%,12.156863%);fill-opacity:1;" d="M 58.800781 20.894531 C 60.019531 23.328125 61.109375 25.765625 61.601562 28.457031 C 60.558594 28.773438 59.523438 28.996094 58.449219 29.179688 C 58.222656 29.21875 58.222656 29.21875 57.992188 29.261719 C 57.386719 29.363281 56.816406 29.453125 56.199219 29.453125 C 56.160156 29.332031 56.121094 29.210938 56.082031 29.089844 C 55.902344 28.539062 55.71875 27.988281 55.539062 27.4375 C 55.476562 27.25 55.414062 27.058594 55.351562 26.863281 C 55.085938 26.070312 54.832031 25.332031 54.441406 24.589844 C 54.199219 24.078125 54.199219 24.078125 54.234375 23.6875 C 54.457031 23.144531 54.734375 22.992188 55.230469 22.683594 C 55.398438 22.578125 55.566406 22.472656 55.738281 22.363281 C 55.914062 22.257812 56.09375 22.148438 56.273438 22.039062 C 56.449219 21.929688 56.625 21.820312 56.804688 21.707031 C 58.117188 20.894531 58.117188 20.894531 58.800781 20.894531 Z M 58.800781 20.894531 "/>
<path style=" stroke:none;fill-rule:nonzero;fill:rgb(79.215688%,44.313726%,10.980392%);fill-opacity:1;" d="M 6.199219 71.242188 C 8 71.242188 8 71.242188 8.46875 71.667969 C 8.582031 71.859375 8.695312 72.054688 8.8125 72.253906 C 8.9375 72.464844 9.066406 72.675781 9.195312 72.894531 C 9.320312 73.117188 9.445312 73.339844 9.574219 73.570312 C 9.703125 73.789062 9.835938 74.007812 9.96875 74.234375 C 10.210938 74.644531 10.449219 75.054688 10.683594 75.46875 C 10.980469 75.988281 11.289062 76.503906 11.601562 77.015625 C 11.664062 75.109375 11.730469 73.207031 11.800781 71.242188 C 12.328125 71.242188 12.855469 71.242188 13.398438 71.242188 C 13.398438 74.066406 13.398438 76.890625 13.398438 79.800781 C 11.601562 79.800781 11.601562 79.800781 11.175781 79.46875 C 11.085938 79.3125 10.992188 79.160156 10.898438 79 C 10.792969 78.828125 10.683594 78.660156 10.578125 78.484375 C 10.472656 78.300781 10.371094 78.121094 10.261719 77.933594 C 10.15625 77.761719 10.050781 77.589844 9.941406 77.410156 C 9.742188 77.078125 9.542969 76.746094 9.347656 76.414062 C 8.839844 75.546875 8.316406 74.691406 7.800781 73.832031 C 7.734375 75.800781 7.667969 77.769531 7.601562 79.800781 C 7.136719 79.800781 6.675781 79.800781 6.199219 79.800781 C 6.199219 76.976562 6.199219 74.152344 6.199219 71.242188 Z M 6.199219 71.242188 "/>
<path style=" stroke:none;fill-rule:nonzero;fill:rgb(79.215688%,44.313726%,10.980392%);fill-opacity:1;" d="M 33.074219 71.730469 C 34.101562 72.597656 34.496094 73.667969 34.675781 74.972656 C 34.734375 76.292969 34.511719 77.480469 33.800781 78.605469 C 32.878906 79.527344 32.042969 79.949219 30.75 80.050781 C 29.5 79.964844 28.582031 79.683594 27.726562 78.742188 C 26.625 77.433594 26.675781 75.847656 26.800781 74.230469 C 27.003906 73.089844 27.503906 72.382812 28.425781 71.679688 C 29.859375 70.773438 31.664062 70.804688 33.074219 71.730469 Z M 28.800781 73.234375 C 28.1875 74.269531 28.015625 75.242188 28.199219 76.417969 C 28.46875 77.242188 28.800781 77.839844 29.460938 78.40625 C 30.355469 78.738281 31.074219 78.746094 31.949219 78.371094 C 32.78125 77.703125 33.027344 77.078125 33.164062 76.042969 C 33.246094 74.871094 33.085938 74.03125 32.386719 73.058594 C 31.164062 72.179688 29.917969 72.171875 28.800781 73.234375 Z M 28.800781 73.234375 "/>
<path style=" stroke:none;fill-rule:nonzero;fill:rgb(93.333334%,45.490196%,13.333334%);fill-opacity:1;" d="M 18.601562 23.679688 C 19.210938 23.800781 19.628906 23.996094 20.136719 24.351562 C 20.273438 24.445312 20.410156 24.539062 20.550781 24.636719 C 20.691406 24.738281 20.832031 24.835938 20.976562 24.9375 C 21.253906 25.132812 21.53125 25.324219 21.8125 25.519531 C 21.945312 25.613281 22.078125 25.707031 22.214844 25.800781 C 22.738281 26.164062 23.269531 26.515625 23.800781 26.867188 C 23.683594 27.757812 23.445312 28.503906 23.085938 29.328125 C 22.996094 29.539062 22.90625 29.75 22.8125 29.96875 C 22.707031 30.207031 22.707031 30.207031 22.601562 30.449219 C 21.242188 30.304688 19.929688 30.035156 18.601562 29.738281 C 18.386719 29.691406 18.175781 29.644531 17.957031 29.597656 C 17.4375 29.484375 16.917969 29.367188 16.398438 29.253906 C 16.75 27.835938 17.1875 26.542969 17.835938 25.234375 C 17.910156 25.085938 17.984375 24.933594 18.0625 24.777344 C 18.238281 24.410156 18.417969 24.046875 18.601562 23.679688 Z M 18.601562 23.679688 "/>
<path style=" stroke:none;fill-rule:nonzero;fill:rgb(98.431373%,71.372551%,48.235294%);fill-opacity:1;" d="M 47.601562 18.507812 C 49.324219 19.5 50.71875 21.035156 51.800781 22.6875 C 50.992188 23.53125 50.089844 24.097656 49.101562 24.714844 C 48.929688 24.824219 48.757812 24.929688 48.582031 25.042969 C 48.417969 25.148438 48.25 25.25 48.082031 25.355469 C 47.929688 25.449219 47.78125 25.542969 47.625 25.640625 C 47.214844 25.863281 46.859375 25.980469 46.398438 26.070312 C 46.027344 25.691406 45.65625 25.308594 45.289062 24.925781 C 45.179688 24.816406 45.074219 24.710938 44.964844 24.601562 C 44.660156 24.28125 44.660156 24.28125 44.199219 23.679688 C 44.261719 22.984375 44.621094 22.511719 45.019531 21.953125 C 45.140625 21.777344 45.265625 21.601562 45.394531 21.421875 C 45.523438 21.238281 45.652344 21.058594 45.789062 20.871094 C 45.917969 20.6875 46.046875 20.503906 46.179688 20.316406 C 47.136719 18.96875 47.136719 18.96875 47.601562 18.507812 Z M 47.601562 18.507812 "/>
<path style=" stroke:none;fill-rule:nonzero;fill:rgb(98.431373%,71.372551%,48.235294%);fill-opacity:1;" d="M 31.199219 14.925781 C 31.367188 15.804688 31.535156 16.683594 31.699219 17.5625 C 31.746094 17.8125 31.796875 18.0625 31.84375 18.320312 C 31.890625 18.558594 31.933594 18.796875 31.980469 19.046875 C 32.023438 19.265625 32.066406 19.488281 32.109375 19.714844 C 32.199219 20.296875 32.199219 20.296875 32.199219 21.09375 C 31.785156 21.257812 31.367188 21.417969 30.949219 21.578125 C 30.71875 21.667969 30.484375 21.757812 30.246094 21.851562 C 29.761719 22.03125 29.300781 22.171875 28.800781 22.289062 C 28.34375 21.589844 27.886719 20.886719 27.433594 20.183594 C 27.277344 19.945312 27.121094 19.707031 26.96875 19.46875 C 26.742188 19.125 26.523438 18.785156 26.300781 18.441406 C 26.164062 18.234375 26.03125 18.027344 25.894531 17.816406 C 25.601562 17.3125 25.601562 17.3125 25.601562 16.914062 C 29.757812 14.925781 29.757812 14.925781 31.199219 14.925781 Z M 31.199219 14.925781 "/>
<path style=" stroke:none;fill-rule:nonzero;fill:rgb(98.431373%,71.372551%,48.235294%);fill-opacity:1;" d="M 40.601562 15.125 C 41.722656 15.230469 42.617188 15.53125 43.636719 15.996094 C 43.777344 16.054688 43.917969 16.117188 44.0625 16.179688 C 44.773438 16.492188 45.398438 16.808594 46 17.3125 C 45.683594 18.273438 45.132812 18.992188 44.523438 19.789062 C 43.859375 20.671875 43.207031 21.558594 42.601562 22.488281 C 42.101562 22.308594 41.605469 22.125 41.113281 21.941406 C 40.898438 21.863281 40.898438 21.863281 40.683594 21.789062 C 39.644531 21.390625 39.644531 21.390625 39.441406 20.953125 C 39.386719 20.339844 39.503906 19.84375 39.644531 19.246094 C 39.699219 19.003906 39.753906 18.765625 39.808594 18.515625 C 39.867188 18.269531 39.925781 18.019531 39.988281 17.761719 C 40.046875 17.507812 40.105469 17.253906 40.164062 16.996094 C 40.308594 16.371094 40.453125 15.746094 40.601562 15.125 Z M 40.601562 15.125 "/>
<path style=" stroke:none;fill-rule:nonzero;fill:rgb(93.333334%,45.490196%,13.333334%);fill-opacity:1;" d="M 53 24.476562 C 54.898438 28.777344 54.898438 28.777344 54.601562 29.851562 C 53.863281 29.984375 53.125 30.117188 52.386719 30.25 C 52.179688 30.285156 51.972656 30.324219 51.757812 30.363281 C 50.6875 30.554688 49.6875 30.695312 48.601562 30.648438 C 48.425781 30.230469 48.257812 29.808594 48.085938 29.390625 C 47.992188 29.15625 47.898438 28.925781 47.800781 28.683594 C 47.601562 28.058594 47.601562 28.058594 47.800781 27.460938 C 48.15625 27.183594 48.15625 27.183594 48.617188 26.902344 C 48.78125 26.800781 48.949219 26.695312 49.121094 26.589844 C 49.292969 26.484375 49.46875 26.378906 49.648438 26.269531 C 49.820312 26.164062 49.992188 26.054688 50.171875 25.945312 C 50.503906 25.742188 50.832031 25.539062 51.164062 25.339844 C 51.511719 25.128906 51.855469 24.914062 52.195312 24.703125 C 52.601562 24.476562 52.601562 24.476562 53 24.476562 Z M 53 24.476562 "/>
<path style=" stroke:none;fill-rule:nonzero;fill:rgb(98.431373%,71.372551%,48.235294%);fill-opacity:1;" d="M 23.800781 18.109375 C 24.71875 18.933594 25.316406 19.855469 25.949219 20.90625 C 26.046875 21.066406 26.148438 21.226562 26.25 21.390625 C 27.117188 22.820312 27.117188 22.820312 27.199219 23.484375 C 26.808594 24.003906 26.808594 24.003906 26.261719 24.539062 C 26.085938 24.71875 25.90625 24.898438 25.722656 25.085938 C 25.199219 25.472656 25.199219 25.472656 24.824219 25.433594 C 23.921875 25.09375 23.160156 24.46875 22.375 23.917969 C 22.191406 23.792969 22.007812 23.667969 21.816406 23.539062 C 21.640625 23.414062 21.46875 23.292969 21.285156 23.167969 C 21.125 23.054688 20.964844 22.945312 20.800781 22.832031 C 20.386719 22.476562 20.203125 22.191406 20 21.691406 C 20.519531 21.167969 21.042969 20.644531 21.5625 20.125 C 21.710938 19.976562 21.859375 19.828125 22.007812 19.675781 C 22.152344 19.53125 22.292969 19.390625 22.441406 19.242188 C 22.574219 19.113281 22.703125 18.980469 22.839844 18.84375 C 23.199219 18.507812 23.199219 18.507812 23.800781 18.109375 Z M 23.800781 18.109375 "/>
<path style=" stroke:none;fill-rule:nonzero;fill:rgb(79.215688%,44.313726%,10.980392%);fill-opacity:1;" d="M 44.273438 71.59375 C 45.128906 72.320312 45.667969 72.894531 45.800781 74.03125 C 44.730469 74.117188 44.730469 74.117188 44.199219 74.03125 C 43.851562 73.558594 43.851562 73.558594 43.601562 73.035156 C 42.855469 72.554688 42.277344 72.597656 41.425781 72.714844 C 40.777344 72.898438 40.53125 73.265625 40.199219 73.832031 C 39.757812 74.710938 39.914062 75.859375 40 76.816406 C 40.234375 77.46875 40.570312 77.867188 41.171875 78.238281 C 41.917969 78.535156 42.644531 78.457031 43.398438 78.207031 C 43.667969 77.8125 43.933594 77.414062 44.199219 77.015625 C 44.769531 76.902344 45.214844 76.957031 45.800781 77.015625 C 45.597656 78.128906 45.273438 78.664062 44.371094 79.359375 C 43.425781 79.980469 42.515625 80.113281 41.398438 80 C 40.25 79.671875 39.421875 79.214844 38.785156 78.195312 C 38.003906 76.582031 38.058594 74.972656 38.605469 73.292969 C 39.035156 72.289062 39.851562 71.726562 40.800781 71.242188 C 41.976562 70.871094 43.191406 71.035156 44.273438 71.59375 Z M 44.273438 71.59375 "/>
<path style=" stroke:none;fill-rule:nonzero;fill:rgb(79.215688%,44.313726%,10.980392%);fill-opacity:1;" d="M 17.601562 71.242188 C 19.382812 71.242188 21.164062 71.242188 23 71.242188 C 23 71.636719 23 72.03125 23 72.4375 C 21.679688 72.4375 20.359375 72.4375 19 72.4375 C 19 73.292969 19 74.144531 19 75.023438 C 20.1875 75.023438 21.375 75.023438 22.601562 75.023438 C 22.601562 75.417969 22.601562 75.8125 22.601562 76.21875 C 21.410156 76.21875 20.222656 76.21875 19 76.21875 C 19 77.402344 19 78.582031 19 79.800781 C 18.539062 79.800781 18.074219 79.800781 17.601562 79.800781 C 17.601562 76.976562 17.601562 74.152344 17.601562 71.242188 Z M 17.601562 71.242188 "/>
<path style=" stroke:none;fill-rule:nonzero;fill:rgb(79.215688%,44.313726%,10.980392%);fill-opacity:1;" d="M 65.199219 71.242188 C 65.828125 71.136719 66.375 71.105469 67 71.242188 C 67.515625 71.730469 67.800781 72.304688 68.113281 72.933594 C 68.199219 73.097656 68.285156 73.257812 68.375 73.425781 C 68.589844 73.824219 68.796875 74.222656 69 74.625 C 69.375 74.164062 69.664062 73.714844 69.945312 73.1875 C 70.957031 71.324219 70.957031 71.324219 71.703125 71.074219 C 72.164062 71.082031 72.558594 71.125 73 71.242188 C 72.835938 71.535156 72.667969 71.832031 72.503906 72.121094 C 72.355469 72.378906 72.214844 72.632812 72.070312 72.886719 C 71.628906 73.660156 71.152344 74.363281 70.613281 75.074219 C 69.667969 76.496094 69.789062 78.15625 69.800781 79.800781 C 69.339844 79.800781 68.875 79.800781 68.398438 79.800781 C 68.421875 79.613281 68.441406 79.429688 68.460938 79.234375 C 68.609375 76.324219 67.03125 74.199219 65.472656 71.867188 C 65.199219 71.441406 65.199219 71.441406 65.199219 71.242188 Z M 65.199219 71.242188 "/>
<path style=" stroke:none;fill-rule:nonzero;fill:rgb(79.215688%,44.313726%,10.980392%);fill-opacity:1;" d="M 55 71.242188 C 57.242188 71.242188 59.488281 71.242188 61.800781 71.242188 C 61.800781 71.636719 61.800781 72.03125 61.800781 72.4375 C 60.875 72.4375 59.953125 72.4375 59 72.4375 C 59 74.867188 59 77.296875 59 79.800781 C 58.539062 79.800781 58.074219 79.800781 57.601562 79.800781 C 57.601562 77.371094 57.601562 74.941406 57.601562 72.4375 C 56.742188 72.4375 55.882812 72.4375 55 72.4375 C 55 72.042969 55 71.648438 55 71.242188 Z M 55 71.242188 "/>
<path style=" stroke:none;fill-rule:nonzero;fill:rgb(79.215688%,44.313726%,10.980392%);fill-opacity:1;" d="M 49.601562 71.242188 C 50.128906 71.242188 50.65625 71.242188 51.199219 71.242188 C 51.199219 74.066406 51.199219 76.890625 51.199219 79.800781 C 50.671875 79.800781 50.144531 79.800781 49.601562 79.800781 C 49.601562 76.976562 49.601562 74.152344 49.601562 71.242188 Z M 49.601562 71.242188 "/>
<path style=" stroke:none;fill-rule:nonzero;fill:rgb(79.215688%,44.313726%,10.980392%);fill-opacity:1;" d="M 0.398438 71.242188 C 0.929688 71.242188 1.457031 71.242188 2 71.242188 C 2 74.066406 2 76.890625 2 79.800781 C 1.472656 79.800781 0.945312 79.800781 0.398438 79.800781 C 0.398438 76.976562 0.398438 74.152344 0.398438 71.242188 Z M 0.398438 71.242188 "/>
</g>
</svg>
